<svg id="Ebene_1" data-name="Ebene 1" xmlns="http://www.w3.org/2000/svg" viewBox="0 0 146 37"><defs><style>.cls-1{fill:#2b2e34;}.cls-2{fill:#41c2e8;}.cls-3{fill:none;stroke:#41c2e8;stroke-miterlimit:10;stroke-width:3px;}</style></defs><title>Logo_pos</title><path class="cls-1" d="M25.45,27.55H21.84L13.65,15.18V27.55H10V9.5h3.61l8.19,12.4V9.5h3.61Z"/><path class="cls-1" d="M32.89,12.45V17H39v2.87H32.89v4.78h6.84v2.94H29.28V9.5H39.73v2.95Z"/><path class="cls-2" d="M67.36,9.53l-5,18H58.06L54.68,14.72,51.14,27.55l-4.23,0-4.85-18h3.87l3.17,14,3.67-14h4l3.46,13.91,3.2-13.91Z"/><path class="cls-2" d="M94.06,9.53l-5,18H84.76L81.38,14.72,77.84,27.55l-4.23,0-4.86-18h3.88l3.17,14,3.67-14h4L87,23.44l3.2-13.91Z"/><path class="cls-2" d="M120.75,9.53l-5,18h-4.26l-3.38-12.83-3.54,12.83-4.24,0-4.85-18h3.87l3.18,14,3.67-14h4l3.46,13.91,3.2-13.91Z"/><path class="cls-1" d="M126.19,27.08a5.5,5.5,0,0,1-2.39-1.85,4.9,4.9,0,0,1-.91-2.87h3.88a2.48,2.48,0,0,0,.79,1.76,2.77,2.77,0,0,0,1.94.64,3,3,0,0,0,2-.61,2,2,0,0,0,.73-1.58,1.85,1.85,0,0,0-.49-1.32,3.43,3.43,0,0,0-1.23-.81,19.58,19.58,0,0,0-2-.66,23.37,23.37,0,0,1-2.85-1,5,5,0,0,1-1.89-1.53,4.35,4.35,0,0,1-.78-2.72,4.82,4.82,0,0,1,.8-2.79A5.07,5.07,0,0,1,126,9.9a8.25,8.25,0,0,1,3.31-.63,7.18,7.18,0,0,1,4.53,1.35,5,5,0,0,1,1.92,3.79h-4a2.11,2.11,0,0,0-.79-1.54,3,3,0,0,0-2-.61,2.51,2.51,0,0,0-1.69.55,2,2,0,0,0-.63,1.57,1.62,1.62,0,0,0,.47,1.2,3.73,3.73,0,0,0,1.19.78c.47.19,1.14.42,2,.68a22.61,22.61,0,0,1,2.87,1,5.16,5.16,0,0,1,1.91,1.55,4.32,4.32,0,0,1,.8,2.71,5.1,5.1,0,0,1-.75,2.69A5.26,5.26,0,0,1,133,27a7.4,7.4,0,0,1-3.44.74A8.37,8.37,0,0,1,126.19,27.08Z"/><rect class="cls-3" x="3.25" y="3.25" width="139.5" height="30.5"/></svg>