<svg id="Ebene_1" data-name="Ebene 1" xmlns="http://www.w3.org/2000/svg" viewBox="0 0 146 37"><defs><style>.cls-1{fill:#fff;}.cls-2{fill:#41c2e8;}.cls-3{fill:none;stroke:#41c2e8;stroke-miterlimit:10;stroke-width:3px;}</style></defs><title>Logo</title><path class="cls-1" d="M25,26.69H21.4L13.22,14.32V26.69H9.6v-18h3.62L21.4,21V8.64H25Z"/><path class="cls-1" d="M32.45,11.59v4.52h6.07V19H32.45v4.78h6.84v2.94H28.84v-18H39.29v2.95Z"/><path class="cls-2" d="M66.92,8.67l-5,18H57.63L54.24,13.86,50.71,26.69l-4.24,0-4.85-18h3.87l3.18,14,3.66-14h4l3.46,13.92L63,8.67Z"/><path class="cls-2" d="M93.62,8.67l-5,18H84.32L80.94,13.86,77.4,26.69l-4.23,0-4.85-18h3.87l3.17,14L79,8.67h4l3.46,13.92,3.2-13.92Z"/><path class="cls-2" d="M120.32,8.67l-5,18H111l-3.38-12.83L104.1,26.69l-4.23,0L95,8.67h3.88l3.17,14,3.67-14h4l3.46,13.92,3.21-13.92Z"/><path class="cls-1" d="M125.75,26.23a5.58,5.58,0,0,1-2.39-1.86,4.9,4.9,0,0,1-.9-2.87h3.87a2.48,2.48,0,0,0,.79,1.76,2.78,2.78,0,0,0,1.95.64,3,3,0,0,0,2-.6,2,2,0,0,0,.72-1.59,1.87,1.87,0,0,0-.49-1.32,3.56,3.56,0,0,0-1.23-.81,19.58,19.58,0,0,0-2-.66,20.41,20.41,0,0,1-2.85-1,5,5,0,0,1-1.88-1.52,4.32,4.32,0,0,1-.79-2.73,4.91,4.91,0,0,1,.8-2.79A5.12,5.12,0,0,1,125.56,9a8.16,8.16,0,0,1,3.3-.63,7.12,7.12,0,0,1,4.53,1.36,5,5,0,0,1,1.93,3.78h-4a2.11,2.11,0,0,0-.79-1.54,3,3,0,0,0-2-.6,2.52,2.52,0,0,0-1.69.54,2,2,0,0,0-.63,1.57,1.61,1.61,0,0,0,.48,1.2,3.57,3.57,0,0,0,1.18.78c.48.2,1.14.42,2,.68a20.83,20.83,0,0,1,2.86,1,5.13,5.13,0,0,1,1.91,1.54,4.35,4.35,0,0,1,.8,2.72,5.09,5.09,0,0,1-.75,2.68,5.28,5.28,0,0,1-2.19,2,7.52,7.52,0,0,1-3.44.73A8.57,8.57,0,0,1,125.75,26.23Z"/><rect class="cls-3" x="2.57" y="2.51" width="139.5" height="30.5"/></svg>