<?xml version="1.0" encoding="utf-8"?>
<!-- Generator: Adobe Illustrator 24.0.3, SVG Export Plug-In . SVG Version: 6.00 Build 0)  -->
<svg version="1.1" id="Capa_1" xmlns="http://www.w3.org/2000/svg" xmlns:xlink="http://www.w3.org/1999/xlink" x="0px" y="0px"
	 viewBox="0 0 512 512" style="enable-background:new 0 0 512 512;" xml:space="preserve">
<style type="text/css">
	.st0{fill:#FFFFFF;}
	.st1{fill:#41C2E8;}
</style>
<path class="st0" d="M210.3,95.2c8.3,0,15-6.7,15-15V50c0-8.3-6.7-15-15-15s-15,6.7-15,15v30.2C195.3,88.5,202,95.2,210.3,95.2z"/>
<path class="st0" d="M74.2,150.1L48,135c-7.2-4.1-16.3-1.7-20.5,5.5c-4.1,7.2-1.7,16.3,5.5,20.5l26.2,15.1
	c7.2,4.1,16.3,1.7,20.5-5.5C83.8,163.4,81.3,154.2,74.2,150.1z"/>
<path class="st0" d="M59.2,315.9L33,331c-7.2,4.1-9.6,13.3-5.5,20.5c4.2,7.2,13.4,9.6,20.5,5.5l26.2-15.1c7.2-4.1,9.6-13.3,5.5-20.5
	C75.5,314.2,66.3,311.7,59.2,315.9L59.2,315.9z"/>
<path class="st0" d="M361.3,176.1l26.2-15.1c7.2-4.1,9.6-13.3,5.5-20.5c-4.1-7.2-13.3-9.6-20.5-5.5l-26.2,15.1
	c-7.2,4.1-9.6,13.3-5.5,20.5C345,177.8,354.2,180.2,361.3,176.1z"/>
<path class="st0" d="M319.8,197c-18.8-41.8-60.8-71-109.5-71c-66.2,0-120,53.8-120,120c0,42.5,22.2,79.8,55.5,101.1"/>
<g>
	<path class="st1" d="M396.2,251c-7.8,1.6-15.4-3.1-17.5-10.8c-9.7-35.8-42.5-60.8-79.6-60.8c-50.2,0-88.6,44.4-81.7,94.1
		c1.3,9.5-6.5,17.9-16.2,17c-16-1.5-30.7,3.9-41.8,14c-36.8,33.6-12.7,94.9,36.8,94.9c80.1-0.1,216.2,0.2,221.5-0.3
		c38.6-3.2,68.8-36,68.8-74.7C486.4,277.1,442.9,241.4,396.2,251z"/>
</g>
</svg>
